<svg width="20" height="16" viewBox="0 0 20 16" fill="none" xmlns="http://www.w3.org/2000/svg">
<path d="M10 0C4.48603 0 0 3.54752 0 7.9081C0 12.2687 4.48603 15.8163 10 15.8163C15.514 15.8163 20 12.2687 20 7.9081C20 3.54752 15.5141 0 10 0ZM15.7422 6.57236L9.45969 11.5406C9.19255 11.7519 8.83746 11.8681 8.45972 11.8681C8.08198 11.8681 7.72688 11.7519 7.45975 11.5406L4.25782 9.0085C3.99069 8.79725 3.84356 8.51644 3.84356 8.21771C3.84356 7.91891 3.99069 7.6381 4.25782 7.42685C4.52485 7.2156 4.87995 7.09924 5.25779 7.09924C5.63553 7.09924 5.99073 7.2156 6.25776 7.42693L8.45961 9.16809L13.742 4.9907C14.0092 4.77945 14.3643 4.66318 14.742 4.66318C15.1197 4.66318 15.4748 4.77945 15.742 4.9907C16.2936 5.4269 16.2936 6.13632 15.7422 6.57236Z" fill="#646F75"/>
</svg>
