<svg width="20" height="18" viewBox="0 0 20 18" fill="none" xmlns="http://www.w3.org/2000/svg">
<path d="M10 0C4.48603 0 0 3.82375 0 8.52388C0 13.224 4.48603 17.0479 10 17.0479C15.514 17.0479 20 13.224 20 8.52388C20 3.82375 15.5141 0 10 0ZM15.7422 7.08413L9.45969 12.4392C9.19255 12.6669 8.83746 12.7923 8.45972 12.7923C8.08198 12.7923 7.72688 12.6669 7.45975 12.4392L4.25782 9.70996C3.99069 9.48226 3.84356 9.17958 3.84356 8.8576C3.84356 8.53553 3.99069 8.23285 4.25782 8.00515C4.52485 7.77745 4.87995 7.65204 5.25779 7.65204C5.63553 7.65204 5.99073 7.77745 6.25776 8.00524L8.45961 9.88198L13.742 5.37931C14.0092 5.15161 14.3643 5.02629 14.742 5.02629C15.1197 5.02629 15.4748 5.15161 15.742 5.37931C16.2936 5.84948 16.2936 6.61414 15.7422 7.08413Z" fill="white"/>
</svg>
